<svg xmlns="http://www.w3.org/2000/svg" viewBox="0 0 960 540" role="img">
  <rect width="960" height="540" fill="#faf2e3"/>
  <path d="M0 428c126-47 229-72 354-91 145-22 252-101 378-53 74 29 142 42 228 20v236H0z" fill="#dfead7"/>
  <g stroke="#263d35" stroke-linecap="round" opacity=".78">
    <path d="M150 342c65-28 115-78 151-149" stroke-width="18"/>
    <path d="M226 316c36-36 71-56 106-60" stroke-width="8"/>
    <path d="M252 270c43-44 91-71 145-80" stroke-width="7"/>
    <path d="M594 176c56 19 94 58 115 118" stroke-width="11"/>
    <path d="M641 169c41 43 64 91 69 144" stroke-width="7"/>
    <path d="M697 188c29 45 42 82 40 112" stroke-width="5"/>
  </g>
  <g fill="#a83f36" opacity=".68">
    <circle cx="566" cy="254" r="9"/>
    <circle cx="592" cy="237" r="7"/>
    <circle cx="620" cy="263" r="8"/>
    <circle cx="665" cy="231" r="6"/>
  </g>
</svg>
